<?xml version="1.0" encoding="utf-8"?>
<!DOCTYPE svg PUBLIC "-//W3C//DTD SVG 20010904//EN" "http://www.w3.org/TR/2001/REC-SVG-20010904/DTD/svg10.dtd">
<svg version="1.0" xmlns="http://www.w3.org/2000/svg" width="60px" height="60px" viewBox="0 0 246 232" style="" preserveAspectRatio="xMidYMid meet">
<g fill="#000000FF" stroke="#000000FF">
<path d="M 94.150 11.997 C 88.268 14.113 87.285 14.738 81.664 19.946 C 73.050 27.926 69.497 41.054 67.076 73.853 C 66.384 83.219 65.883 85.561 64.212 87.232 C 60.962 90.483 56.615 88.920 45.452 80.489 C 36.931 74.053 34.972 73.001 31.519 73.004 C 23.133 73.012 17.958 79.360 17.200 90.570 C 16.341 103.283 22.945 111.584 40.679 120.081 C 46.277 122.764 51.565 125.968 52.429 127.202 C 54.548 130.227 54.439 133.000 52.201 133.000 C 49.143 133.000 48.055 138.661 47.542 157.245 C 47.273 166.973 46.351 179.559 45.492 185.216 C 41.294 212.862 41.206 215.167 44.250 218.062 C 46.285 219.998 47.311 220.155 55.000 219.715 C 60.300 219.411 65.490 218.432 68.787 217.114 C 77.024 213.821 79.540 214.247 89.337 220.593 C 101.182 228.266 103.570 228.486 115.175 222.971 L 124.238 218.665 131.369 222.333 C 135.291 224.351 139.752 226.001 141.282 226.001 C 145.335 226.000 150.729 223.478 155.075 219.551 C 162.293 213.030 163.269 212.807 182.987 213.171 C 203.186 213.545 204.044 213.266 206.092 205.660 C 207.645 199.892 206.298 180.618 203.460 168.000 C 202.161 162.225 200.193 152.550 199.087 146.500 C 197.981 140.450 196.532 132.988 195.867 129.918 C 195.202 126.847 194.950 123.574 195.307 122.643 C 195.664 121.712 198.029 119.724 200.562 118.225 C 227.474 102.301 233.993 94.910 234.718 79.500 C 235.045 72.543 234.793 70.982 232.782 67.530 C 229.063 61.144 224.978 58.996 216.602 59.022 C 207.089 59.051 203.142 61.003 192.380 70.998 C 184.049 78.735 177.772 83.000 174.714 83.000 C 172.666 83.000 169.075 78.748 168.022 75.075 C 167.510 73.290 166.614 67.481 166.031 62.165 C 164.203 45.491 161.860 33.668 159.437 28.880 C 155.276 20.660 148.503 16.535 132.509 12.477 C 119.784 9.249 102.393 9.031 94.150 11.997 M 127.540 15.940 C 144.598 19.541 152.248 23.742 155.900 31.511 C 157.221 34.321 158.733 41.623 160.081 51.707 C 163.602 78.043 165.267 83.359 170.797 85.932 C 176.828 88.737 183.185 85.656 195.587 73.918 C 204.140 65.823 209.460 63.051 216.500 63.026 C 226.532 62.989 231.704 69.295 230.703 80.342 C 230.407 83.602 229.113 88.250 227.777 90.845 C 225.104 96.039 216.006 103.954 206.662 109.214 C 197.850 114.174 192.654 118.272 191.106 121.483 C 189.896 123.993 189.928 125.240 191.355 130.937 C 192.259 134.547 193.869 142.450 194.932 148.500 C 195.995 154.550 197.852 163.775 199.058 169.000 C 200.492 175.215 201.411 183.168 201.715 192.000 C 202.327 209.797 202.441 209.634 189.843 208.983 C 164.680 207.682 160.699 208.429 152.416 216.002 C 150.170 218.055 146.642 220.293 144.578 220.974 C 141.048 222.139 140.414 221.998 133.939 218.607 C 130.152 216.623 125.778 215.000 124.217 215.000 C 122.657 215.000 118.257 216.523 114.440 218.384 C 110.623 220.245 106.521 222.065 105.323 222.428 C 102.547 223.270 98.198 221.392 89.872 215.755 C 81.011 209.757 78.126 209.324 68.358 212.526 C 58.187 215.860 48.931 216.827 47.197 214.737 C 45.922 213.201 46.514 206.545 49.108 193.286 C 50.396 186.698 51.945 166.922 51.976 156.667 C 51.995 150.331 52.574 147.401 55.000 141.341 C 60.574 127.421 58.830 123.923 42.360 115.979 C 29.856 109.948 24.017 104.703 22.071 97.755 C 20.127 90.810 21.379 84.421 25.490 80.310 C 30.259 75.541 32.556 75.954 41.684 83.225 C 53.706 92.799 59.031 94.765 65.257 91.929 C 69.087 90.184 70.227 87.154 71.044 76.548 C 72.251 60.886 74.954 42.327 76.972 35.842 C 82.782 17.175 100.452 10.221 127.540 15.940 "/></g>
<g fill="#000000FF" stroke="#000000FF">
<path d="M 115.500 85.031 C 110.000 85.358 104.375 86.207 103.000 86.916 C 99.186 88.885 94.000 96.523 94.000 100.174 C 94.000 103.182 97.562 109.089 100.910 111.633 C 101.730 112.256 105.873 112.967 110.116 113.213 C 118.996 113.727 121.811 115.161 125.799 121.203 C 130.808 128.794 134.483 132.002 138.150 131.984 C 142.886 131.960 149.173 128.121 151.248 123.985 C 153.542 119.413 153.675 104.551 151.469 99.272 C 146.197 86.653 138.620 83.653 115.500 85.031 M 138.654 90.930 C 144.703 93.677 148.174 100.031 148.780 109.469 C 149.329 118.025 147.916 123.170 144.380 125.487 C 140.847 127.802 135.944 127.763 134.270 125.408 C 133.525 124.358 131.615 121.634 130.026 119.353 C 124.820 111.881 120.971 109.725 111.899 109.200 C 104.192 108.754 103.833 108.621 100.965 105.142 C 99.334 103.163 98.000 100.912 98.000 100.139 C 98.000 98.022 101.981 95.000 104.770 95.000 C 106.846 95.000 107.159 94.614 106.764 92.545 C 106.158 89.375 106.704 89.253 122.000 89.138 C 132.253 89.061 135.247 89.383 138.654 90.930 "/></g>
<g fill="#000000FF" stroke="#000000FF">
<path d="M 126.074 48.111 C 124.366 50.912 124.007 53.162 124.004 61.076 C 124.000 69.795 124.207 70.846 126.314 72.826 C 129.292 75.623 138.960 75.960 141.128 73.343 C 142.847 71.267 142.638 63.205 140.670 55.667 L 139.214 50.093 142.107 50.671 C 144.533 51.157 145.000 50.924 145.000 49.232 C 145.000 46.698 143.196 45.999 134.820 45.289 L 128.140 44.722 126.074 48.111 M 136.346 56.528 C 137.256 60.669 138.000 65.619 138.000 67.528 C 138.000 70.881 137.870 71.000 134.200 71.000 C 128.835 71.000 128.000 69.700 128.000 61.347 C 128.000 52.818 129.393 49.000 132.506 49.000 C 134.413 49.000 134.902 49.959 136.346 56.528 "/></g>
<g fill="#000000FF" stroke="#000000FF">
<path d="M 92.250 46.115 C 88.942 46.896 88.000 47.576 88.000 49.188 C 88.000 51.093 88.397 51.205 93.000 50.594 C 98.791 49.826 98.971 50.229 96.489 58.409 C 95.670 61.109 95.000 65.188 95.000 67.474 C 95.000 71.246 95.326 71.785 98.534 73.315 C 103.870 75.860 106.750 75.450 110.600 71.600 C 113.694 68.506 114.000 67.672 114.000 62.334 C 114.000 49.201 105.630 42.959 92.250 46.115 M 108.490 54.980 C 112.677 63.078 108.231 72.559 101.455 69.983 C 98.927 69.022 98.817 68.708 99.470 64.352 C 99.850 61.815 100.544 58.786 101.012 57.620 C 101.479 56.454 102.129 54.253 102.455 52.728 C 102.968 50.334 103.317 50.100 105.014 51.008 C 106.095 51.586 107.659 53.374 108.490 54.980 "/></g>
</svg>
